<?xml version="1.0" encoding="UTF-8" standalone="no"?>
<svg
   xmlns:dc="http://purl.org/dc/elements/1.1/"
   xmlns:cc="http://creativecommons.org/ns#"
   xmlns:rdf="http://www.w3.org/1999/02/22-rdf-syntax-ns#"
   xmlns:svg="http://www.w3.org/2000/svg"
   xmlns="http://www.w3.org/2000/svg"
   xmlns:sodipodi="http://sodipodi.sourceforge.net/DTD/sodipodi-0.dtd"
   xmlns:inkscape="http://www.inkscape.org/namespaces/inkscape"
   enable-background="new 0 0 160 80"
   id="Layer_1"
   version="1.1"
   viewBox="0 0 60 60"
   xml:space="preserve"
   sodipodi:docname="character.svg"
   width="60"
   height="60"
   inkscape:version="0.92.2 2405546, 2018-03-11"><metadata
     id="metadata95"><rdf:RDF><cc:Work
         rdf:about=""><dc:format>image/svg+xml</dc:format><dc:type
           rdf:resource="http://purl.org/dc/dcmitype/StillImage" /><dc:title></dc:title></cc:Work></rdf:RDF></metadata><defs
     id="defs93" /><sodipodi:namedview
     pagecolor="#ffffff"
     bordercolor="#666666"
     borderopacity="1"
     objecttolerance="10"
     gridtolerance="10"
     guidetolerance="10"
     inkscape:pageopacity="0"
     inkscape:pageshadow="2"
     inkscape:window-width="1366"
     inkscape:window-height="709"
     id="namedview91"
     showgrid="false"
     inkscape:zoom="5.3209785"
     inkscape:cx="80"
     inkscape:cy="40"
     inkscape:window-x="0"
     inkscape:window-y="0"
     inkscape:window-maximized="1"
     inkscape:current-layer="Layer_1" /><g
     id="g88"
     transform="translate(-49.990805,-5.7169128)"><rect
       height="7"
       width="7"
       x="63"
       y="6"
       id="rect2" /><rect
       height="6"
       width="7"
       x="70"
       y="13"
       id="rect4" /><rect
       height="7"
       width="7"
       x="90"
       y="6"
       id="rect6" /><rect
       height="7"
       width="7"
       x="63"
       y="19"
       id="rect8" /><rect
       height="7"
       width="7"
       x="90"
       y="19"
       id="rect10" /><rect
       height="6"
       width="7"
       x="83"
       y="13"
       id="rect12" /><rect
       height="7"
       width="7"
       x="70"
       y="19"
       id="rect14" /><rect
       height="7"
       width="7"
       x="83"
       y="19"
       id="rect16" /><rect
       height="7"
       width="6"
       x="77"
       y="19"
       id="rect18" /><rect
       height="7"
       width="6"
       x="97"
       y="26"
       id="rect20" /><rect
       height="6"
       width="7"
       x="103"
       y="33"
       id="rect22" /><rect
       height="7"
       width="6"
       x="77"
       y="26"
       id="rect24" /><rect
       height="7"
       width="6"
       x="57"
       y="26"
       id="rect26" /><rect
       height="6"
       width="7"
       x="50"
       y="33"
       id="rect28" /><rect
       height="7"
       width="7"
       x="63"
       y="26"
       id="rect30" /><rect
       height="7"
       width="7"
       x="90"
       y="26"
       id="rect32" /><rect
       height="6"
       width="7"
       x="70"
       y="33"
       id="rect34" /><rect
       height="6"
       width="6"
       x="97"
       y="33"
       id="rect36" /><rect
       height="6"
       width="6"
       x="77"
       y="33"
       id="rect38" /><rect
       height="6"
       width="6"
       x="57"
       y="33"
       id="rect40" /><rect
       height="6"
       width="7"
       x="63"
       y="33"
       id="rect42" /><rect
       height="6"
       width="7"
       x="90"
       y="33"
       id="rect44" /><rect
       height="6"
       width="7"
       x="83"
       y="33"
       id="rect46" /><rect
       height="7"
       width="7"
       x="103"
       y="39"
       id="rect48" /><rect
       height="7"
       width="7"
       x="50"
       y="39"
       id="rect50" /><rect
       height="7"
       width="7"
       x="70"
       y="39"
       id="rect52" /><rect
       height="7"
       width="6"
       x="77"
       y="39"
       id="rect54" /><rect
       height="7"
       width="7"
       x="63"
       y="39"
       id="rect56" /><rect
       height="7"
       width="7"
       x="90"
       y="39"
       id="rect58" /><rect
       height="7"
       width="7"
       x="83"
       y="39"
       id="rect60" /><rect
       height="6"
       width="7"
       x="70"
       y="53"
       id="rect62" /><rect
       height="6"
       width="7"
       x="83"
       y="53"
       id="rect64" /><rect
       height="7"
       width="7"
       x="70"
       y="59"
       id="rect66" /><rect
       height="7"
       width="7"
       x="63"
       y="59"
       id="rect68" /><rect
       height="7"
       width="7"
       x="90"
       y="59"
       id="rect70" /><rect
       height="7"
       width="7"
       x="83"
       y="59"
       id="rect72" /><rect
       height="7"
       width="7"
       x="103"
       y="46"
       id="rect74" /><rect
       height="7"
       width="7"
       x="50"
       y="46"
       id="rect76" /><rect
       height="7"
       width="7"
       x="70"
       y="46"
       id="rect78" /><rect
       height="7"
       width="6"
       x="77"
       y="46"
       id="rect80" /><rect
       height="7"
       width="7"
       x="63"
       y="46"
       id="rect82" /><rect
       height="7"
       width="7"
       x="90"
       y="46"
       id="rect84" /><rect
       height="7"
       width="7"
       x="83"
       y="46"
       id="rect86" /></g></svg>