<?xml version="1.0" ?><svg id="Layer_1" style="enable-background:new 0 0 48 48;" version="1.1" viewBox="0 0 48 48" xml:space="preserve" xmlns="http://www.w3.org/2000/svg" xmlns:xlink="http://www.w3.org/1999/xlink"><g><path d="M24,11c-7.2,0-13,5.8-13,13c0,7.2,5.8,13,13,13c7.2,0,13-5.8,13-13C37,16.8,31.2,11,24,11z M24,35c-6.1,0-11-4.9-11-11   s4.9-11,11-11s11,4.9,11,11S30.1,35,24,35z"/><path d="M44,20h-2.4c-0.5-2.1-1.3-4-2.3-5.6l1.6-1.8c1.2-1.2,1.2-3,0-4.2L39.5,7c-1.2-1.2-3.1-1.2-4.2,0l-1.8,1.8   c-1.8-1.2-3.6-1.9-5.6-2.3V4c0-1.7-1.3-3-3-3h-2c-1.7,0-3,1.3-3,3v2.5c-1.9,0.4-3.8,1.2-5.6,2.3l-1.7-1.7c-1.2-1.2-3-1.2-4.2,0   L7,8.5c-0.6,0.6-0.9,1.3-0.9,2.1s0.3,1.5,0.9,2.1l1.8,1.7c-1.1,1.8-1.9,3.6-2.3,5.6H4c-1.7,0-3,1.3-3,3v2c0,1.7,1.3,3,3,3h2.5   c0.4,1.9,1.2,3.8,2.4,5.6l-1.7,1.8c-1.2,1.2-1.2,3,0,4.2L8.5,41c1.2,1.2,3,1.2,4.2,0l1.7-1.8c1.8,1.1,3.6,1.9,5.6,2.3V44   c0,1.7,1.3,3,3,3h2c1.7,0,3-1.3,3-3v-2.4c2.1-0.5,3.9-1.3,5.6-2.3l1.7,1.6c1.2,1.2,3,1.2,4.2,0l1.4-1.4c1.2-1.2,1.2-3,0-4.2   l-1.7-1.7c1.2-1.8,1.9-3.6,2.3-5.6H44c1.7,0,3-1.3,3-3v-2C47,21.3,45.7,20,44,20z M45,25c0,0.6-0.4,1-1,1h-4.2l-0.1,0.8   c-0.4,2.2-1.2,4.3-2.6,6.3l-0.5,0.7l2.9,2.9c0.2,0.2,0.3,0.4,0.3,0.7c0,0.3-0.1,0.5-0.3,0.7l-1.4,1.4c-0.4,0.4-1,0.4-1.4,0   l-2.9-2.8l-0.7,0.5c-1.8,1.3-3.9,2.2-6.3,2.6L26,40v4c0,0.6-0.4,1-1,1h-2c-0.6,0-1-0.4-1-1v-4.2l-0.8-0.1c-2.2-0.4-4.3-1.2-6.3-2.6   l-0.7-0.5l-2.9,3c-0.4,0.4-1,0.4-1.4,0l-1.4-1.4c-0.4-0.4-0.4-1,0-1.4l2.9-3l-0.5-0.7c-1.4-2-2.3-4.1-2.6-6.3L8.2,26H4   c-0.6,0-1-0.4-1-1v-2c0-0.6,0.4-1,1-1h4.2l0.1-0.8c0.4-2.2,1.2-4.3,2.6-6.3l0.5-0.7l-3-2.9c-0.2-0.2-0.3-0.4-0.3-0.7   s0.1-0.5,0.3-0.7l1.4-1.4c0.4-0.4,1-0.4,1.4,0l2.9,2.9l0.7-0.5c1.9-1.4,4.1-2.3,6.3-2.6l0.8-0.1V4c0-0.6,0.4-1,1-1h2   c0.6,0,1,0.4,1,1v4.2l0.8,0.1c2.2,0.4,4.3,1.2,6.3,2.6l0.7,0.5l3-3c0.4-0.4,1-0.4,1.4,0l1.4,1.4c0.4,0.4,0.4,1,0,1.4l-2.7,3   l0.5,0.7c1.2,1.8,2.1,3.9,2.6,6.3L40,22h4c0.6,0,1,0.4,1,1V25z"/></g></svg>