<?xml version="1.0" encoding="UTF-8" standalone="no"?>
<svg
   xmlns:dc="http://purl.org/dc/elements/1.1/"
   xmlns:cc="http://creativecommons.org/ns#"
   xmlns:rdf="http://www.w3.org/1999/02/22-rdf-syntax-ns#"
   xmlns:svg="http://www.w3.org/2000/svg"
   xmlns="http://www.w3.org/2000/svg"
   xmlns:sodipodi="http://sodipodi.sourceforge.net/DTD/sodipodi-0.dtd"
   xmlns:inkscape="http://www.inkscape.org/namespaces/inkscape"
   id="Layer_1"
   data-name="Layer 1"
   width="88"
   height="88"
   viewBox="0 0 88 88"
   version="1.1"
   sodipodi:docname="OpenAI_Logo.svg"
   inkscape:version="0.92.2 2405546, 2018-03-11">
  <metadata
     id="metadata13">
    <rdf:RDF>
      <cc:Work
         rdf:about="">
        <dc:format>image/svg+xml</dc:format>
        <dc:type
           rdf:resource="http://purl.org/dc/dcmitype/StillImage" />
        <dc:title>Homepage-1x</dc:title>
      </cc:Work>
    </rdf:RDF>
  </metadata>
  <defs
     id="defs11" />
  <sodipodi:namedview
     pagecolor="#ffffff"
     bordercolor="#666666"
     borderopacity="1"
     objecttolerance="10"
     gridtolerance="10"
     guidetolerance="10"
     inkscape:pageopacity="0"
     inkscape:pageshadow="2"
     inkscape:window-width="1366"
     inkscape:window-height="709"
     id="namedview9"
     showgrid="false"
     inkscape:zoom="4.6307692"
     inkscape:cx="2.1594684"
     inkscape:cy="45"
     inkscape:window-x="0"
     inkscape:window-y="0"
     inkscape:window-maximized="1"
     inkscape:current-layer="Layer_1" />
  <title
     id="title2">Homepage-1x</title>
  <path
     style="fill:#000000;fill-opacity:1;stroke-width:2.00350022"
     d="M 38.403791,0.07345954 A 22.038503,22.038503 0 0 0 18.149885,15.751194 21.838153,21.838153 0 0 0 3.0854314,26.210178 21.537628,21.537628 0 0 0 6.1088688,52.034397 21.277173,21.277173 0 0 0 7.7924626,70.065647 22.038503,22.038503 0 0 0 31.935041,80.284397 22.038503,22.038503 0 0 0 69.780744,72.370335 21.838153,21.838153 0 0 0 84.847151,61.91135 21.357313,21.357313 0 0 0 87.132307,45.483616 21.537628,21.537628 0 0 0 81.802229,36.007053 21.277173,21.277173 0 0 0 80.118635,17.975803 22.198783,22.198783 0 0 0 55.976057,7.737522 22.038503,22.038503 0 0 0 38.403791,0.07345954 Z m 1.582031,6.24804686 a 16.669122,16.669122 0 0 1 9.980469,3.8398436 2.0035003,2.0035003 0 0 0 -0.841797,1.0625 L 30.993635,21.360569 a 2.0035003,2.0035003 0 0 0 -1.0625,2.183594 V 46.024631 L 22.638166,42.016819 V 23.184788 a 2.3641304,2.3641304 0 0 0 0,-0.400391 16.669122,16.669122 0 0 1 17.347656,-16.4628906 z m 20.00586,6.8515626 a 16.809367,16.809367 0 0 1 14.738281,8.208984 16.028002,16.028002 0 0 1 1.982422,10.777344 v -0.03906 A 2.0035003,2.0035003 0 0 0 75.331525,31.96018 L 57.499494,21.821507 a 2.5244104,2.5244104 0 0 0 -2.484375,0 L 34.700666,33.423069 v -8.416016 l 17.269531,-9.636718 a 16.809367,16.809367 0 0 1 8.021485,-2.197266 z m -42.802735,8.808594 a 1.3223102,1.3223102 0 0 0 0.761719,1.123047 v 20.416015 a 1.8632553,1.8632553 0 0 0 0.982422,2.183594 L 38.966291,57.022678 31.733869,61.1301 14.704572,51.47385 A 16.288457,16.288457 0 0 1 6.9506657,41.456272 16.028002,16.028002 0 0 1 8.6147282,29.114475 16.408667,16.408667 0 0 1 17.188947,21.981663 Z m 38.988282,4.929687 16.949218,9.636719 a 16.288457,16.288457 0 0 1 7.753907,10.017578 16.028002,16.028002 0 0 1 -1.66211,12.341797 16.408667,16.408667 0 0 1 -8.496093,7.152344 1.3423452,1.3423452 0 0 0 -0.740235,-1.123047 V 44.520725 A 2.0035003,2.0035003 0 0 0 68.979963,42.337131 L 48.944807,31.018772 Z m -12.220704,7.091797 9.25586,5.25 v 9.675781 l -9.25586,5.109375 -9.236328,-5.25 v -9.615234 z m 14.023438,8.013672 7.273438,4.007812 v 18.832032 a 2.3641304,2.3641304 0 0 0 0,0.40039 A 16.669122,16.669122 0 0 1 37.944807,77.8801 2.0035003,2.0035003 0 0 0 38.786604,76.8176 L 56.938947,66.700413 a 2.0035003,2.0035003 0 0 0 1.041016,-2.203125 z m -4.748047,12.662109 v 8.416016 l -17.289062,9.576172 a 16.809367,16.809367 0 0 1 -22.759766,-6.011719 16.028002,16.028002 0 0 1 -1.984375,-10.777344 2.0035003,2.0035003 0 0 0 0.861328,0.220704 2.0035003,2.0035003 0 0 0 0.521484,0 l 17.830079,10.136718 a 2.5043754,2.5043754 0 0 0 2.484375,0 z"
     id="path6"
     inkscape:connector-curvature="0" />
</svg>
