<?xml version="1.0" standalone="no"?>
<!DOCTYPE svg PUBLIC "-//W3C//DTD SVG 20010904//EN"
 "http://www.w3.org/TR/2001/REC-SVG-20010904/DTD/svg10.dtd">
<svg version="1.0" xmlns="http://www.w3.org/2000/svg"
 width="1080.000000pt" height="1280.000000pt" viewBox="0 0 1080.000000 1280.000000"
 preserveAspectRatio="xMidYMid meet">
<g transform="translate(0.000000,1280.000000) scale(0.100000,-0.100000)"
fill="#181818" stroke="none">
<path d="M5250 12793 c-262 -28 -551 -122 -626 -204 l-32 -34 -21 -950 c-57
-2485 -89 -3827 -93 -3830 -2 -1 -307 -157 -678 -348 -371 -190 -1089 -557
-1595 -817 -506 -259 -938 -475 -960 -480 -123 -28 -252 -91 -329 -161 -36
-32 -137 -90 -351 -200 -330 -170 -389 -205 -454 -270 -84 -84 -110 -182 -111
-408 0 -106 18 -255 125 -1010 69 -487 139 -983 155 -1101 39 -281 45 -312 86
-397 45 -94 113 -154 274 -243 69 -37 1038 -553 2155 -1146 1513 -804 2054
-1086 2125 -1110 341 -117 777 -110 1101 16 80 32 4240 2259 4312 2309 66 46
114 101 143 165 23 50 27 76 31 175 3 70 62 532 149 1164 82 597 144 1082 144
1126 0 108 -17 233 -41 297 -26 68 -100 150 -185 204 -36 23 -1002 509 -2147
1082 -1145 572 -2084 1041 -2085 1043 -2 2 -30 1104 -62 2450 -52 2156 -61
2449 -75 2471 -79 121 -635 242 -955 207z m-787 -5780 c-2 -43 -10 -376 -18
-741 l-16 -663 27 -22 c385 -310 931 -399 1428 -233 59 20 148 56 198 82 99
49 252 149 284 186 l20 23 -18 719 c-10 396 -15 722 -13 725 12 11 302 -62
510 -129 949 -303 1545 -919 1500 -1549 -45 -639 -682 -1200 -1680 -1480 -640
-180 -1434 -215 -2125 -95 -839 145 -1530 502 -1877 969 -64 85 -146 240 -178
336 -153 449 14 922 455 1291 361 302 821 507 1455 651 50 12 50 12 48 -70z
m-3678 -1306 c0 -66 5 -91 24 -130 52 -106 163 -198 315 -259 39 -16 58 -26
41 -23 -51 10 -187 82 -246 128 -57 46 -123 133 -134 180 -14 55 -28 42 -21
-19 10 -87 47 -157 119 -228 295 -289 963 -279 1235 19 64 70 94 134 99 215
l4 65 -24 -57 c-40 -94 -133 -192 -221 -234 -17 -8 -22 -9 -12 -2 135 90 204
172 232 276 14 50 15 72 7 107 -6 25 -7 45 -3 45 16 0 109 -111 131 -157 20
-39 24 -64 24 -133 0 -74 -4 -92 -30 -144 -62 -123 -252 -254 -445 -306 -244
-65 -526 -65 -770 1 -41 11 -122 42 -178 70 -86 42 -117 64 -182 127 -96 96
-124 158 -118 267 4 87 33 150 101 223 28 28 50 52 51 52 1 0 1 -37 1 -83z
m1135 -372 c-14 -8 -29 -14 -35 -14 -5 0 1 6 15 14 14 8 30 14 35 14 6 0 -1
-6 -15 -14z m-60 -25 c-8 -5 -19 -10 -25 -10 -5 0 -3 5 5 10 8 5 20 10 25 10
6 0 3 -5 -5 -10z m-633 -26 c-3 -3 -12 -4 -19 -1 -8 3 -5 6 6 6 11 1 17 -2 13
-5z m40 -10 c-3 -3 -12 -4 -19 -1 -8 3 -5 6 6 6 11 1 17 -2 13 -5z m893 -849
c14 -8 21 -14 15 -14 -5 0 -21 6 -35 14 -14 8 -20 14 -15 14 6 0 21 -6 35 -14z
m365 -163 c1027 -460 1845 -795 2346 -963 401 -134 544 -153 764 -104 420 95
1071 354 2329 929 176 80 321 145 322 143 2 -2 -160 -79 -359 -172 -790 -368
-1631 -778 -1927 -940 -116 -63 -283 -165 -316 -193 -48 -41 -72 -101 -103
-262 -68 -349 -116 -1169 -123 -2105 l-1 -220 -8 240 c-39 1222 -121 2026
-232 2269 -29 62 -56 85 -209 173 -260 149 -1366 680 -2467 1185 -278 127
-364 168 -321 155 8 -3 146 -63 305 -135z m5865 48 c-19 -11 -39 -19 -45 -19
-5 0 6 8 25 19 19 11 40 19 45 19 6 0 -6 -8 -25 -19z"/>
<path d="M3485 6045 c-18 -55 -10 -233 13 -315 73 -262 273 -507 562 -688 164
-103 435 -215 659 -272 416 -106 947 -112 1371 -15 685 157 1170 526 1292 983
23 87 29 270 10 312 l-11 25 0 -30 c-2 -50 -56 -192 -108 -278 -66 -112 -272
-320 -403 -406 -200 -133 -460 -244 -725 -310 -530 -131 -1188 -102 -1662 75
-378 141 -637 315 -809 543 -98 131 -167 276 -177 371 l-3 35 -9 -30z"/>
<path d="M2772 5847 c-45 -241 45 -562 227 -817 352 -493 1062 -856 1886 -964
766 -101 1547 14 2170 319 457 224 794 543 946 895 79 182 112 383 90 533 -14
93 -31 124 -31 57 0 -93 -96 -307 -207 -463 -85 -120 -252 -288 -383 -386
-839 -630 -2227 -790 -3355 -386 -177 63 -465 206 -610 303 -208 138 -340 260
-474 437 -120 159 -216 351 -228 458 -9 80 -18 84 -31 14z"/>
</g>
</svg>
