<?xml version="1.0" ?><!DOCTYPE svg  PUBLIC '-//W3C//DTD SVG 1.1//EN'  'http://www.w3.org/Graphics/SVG/1.1/DTD/svg11.dtd'><svg enable-background="new 0 0 141.73 141.73" height="141.73px" id="Warstwa_1" version="1.1" viewBox="0 0 141.73 141.73" width="141.73px" xml:space="preserve" xmlns="http://www.w3.org/2000/svg" xmlns:xlink="http://www.w3.org/1999/xlink"><g><path d="M101.648,40.093c-8.22-8.22-19.149-12.747-30.773-12.747s-22.553,4.526-30.772,12.746   S27.355,59.24,27.355,70.865s4.527,22.554,12.747,30.773s19.149,12.746,30.774,12.746c11.624,0,22.553-4.526,30.772-12.746   C118.617,84.67,118.616,57.061,101.648,40.093z M100.235,100.225c-7.842,7.842-18.269,12.16-29.358,12.16   c-11.091,0-21.518-4.318-29.36-12.16c-7.842-7.843-12.161-18.269-12.161-29.359s4.319-21.517,12.161-29.359   c7.842-7.842,18.269-12.16,29.358-12.16s21.517,4.319,29.359,12.161C116.423,57.695,116.423,84.036,100.235,100.225z" fill="#575756"/><path d="M82.797,67.445c0.195,0.195,0.451,0.293,0.707,0.293s0.512-0.098,0.707-0.293l4.378-4.377   c0.092-0.092,0.166-0.201,0.217-0.323c0.05-0.12,0.077-0.251,0.077-0.385s-0.027-0.264-0.077-0.385   c-0.051-0.122-0.125-0.231-0.217-0.323l-4.378-4.377c-0.391-0.391-1.023-0.391-1.414,0s-0.391,1.023,0,1.414l2.672,2.671h-0.42   c-5.72,0-10.012,4.023-14.096,8.169c-4.133-4.119-8.462-8.169-14.252-8.169h-2.834c-0.553,0-1,0.447-1,1s0.447,1,1,1h2.834   c4.999,0,8.852,3.609,12.851,7.597c-4.001,4.068-7.855,7.754-12.851,7.754h-2.834c-0.553,0-1,0.447-1,1s0.447,1,1,1h2.834   c5.799,0,10.13-4.137,14.265-8.342c4.082,4.061,8.372,7.999,14.082,7.999h0.421l-2.672,2.671c-0.391,0.391-0.391,1.023,0,1.414   c0.195,0.195,0.451,0.293,0.707,0.293s0.512-0.098,0.707-0.293l4.378-4.377c0.092-0.092,0.166-0.201,0.217-0.323   c0.05-0.12,0.077-0.251,0.077-0.385s-0.027-0.264-0.077-0.385c-0.051-0.122-0.125-0.231-0.217-0.323l-4.378-4.377   c-0.391-0.391-1.023-0.391-1.414,0s-0.391,1.023,0,1.414l2.672,2.671h-0.421c-4.928,0-8.742-3.507-12.68-7.426   c3.94-4,7.756-7.582,12.681-7.582h0.42l-2.672,2.671C82.406,66.422,82.406,67.055,82.797,67.445z" fill="#575756"/></g></svg>