<?xml version="1.0" ?><svg style="enable-background:new 0 0 50 50;" version="1.1" viewBox="0 0 50 50" xml:space="preserve" xmlns="http://www.w3.org/2000/svg" xmlns:xlink="http://www.w3.org/1999/xlink"><g id="Layer_1"><polygon points="29.293,37.293 23.586,43 29.293,48.707 30.707,47.293 27.414,44 44,44 44,31 42,31 42,42 27.414,42 30.707,38.707     "/><polygon points="2.707,30.707 6,27.414 6,44 19,44 19,42 8,42 8,27.414 11.293,30.707 12.707,29.293 7,23.586 1.293,29.293  "/><polygon points="6,19 8,19 8,8 22.586,8 19.293,11.293 20.707,12.707 26.414,7 20.707,1.293 19.293,2.707 22.586,6 6,6  "/><polygon points="31,6 31,8 42,8 42,22.586 38.707,19.293 37.293,20.707 43,26.414 48.707,20.707 47.293,19.293 44,22.586 44,6  "/></g><g/></svg>